<?xml version="1.0" encoding="iso-8859-1"?>
<!-- Generator: Adobe Illustrator 19.0.0, SVG Export Plug-In . SVG Version: 6.00 Build 0)  -->
<svg version="1.1" id="Capa_1" xmlns="http://www.w3.org/2000/svg" xmlns:xlink="http://www.w3.org/1999/xlink" x="0px" y="0px"
	 viewBox="0 0 512 512" style="enable-background:new 0 0 512 512;" xml:space="preserve">
<rect x="71.63" y="296.08" style="fill:#6F6571;" width="240.48" height="40.08"/>
<path style="fill:#FFC869;" d="M422.594,253.544l-12.054-72.325c-1.288-7.731-7.977-13.397-15.814-13.397h-82.612v168.339
	c0,4.427,3.589,8.016,8.016,8.016h72.144h24.049c4.427,0,8.016-3.589,8.016-8.016v-61.53
	C424.339,267.566,423.755,260.513,422.594,253.544z"/>
<path style="fill:#E6B464;" d="M422.593,253.544l-12.054-72.325c-1.288-7.731-7.977-13.397-15.814-13.397h-82.612V256h110.786
	C422.779,255.183,422.729,254.359,422.593,253.544z"/>
<path style="fill:#E1A546;" d="M472.435,304.097h-16.032v56.113c0,8.854,7.178,16.032,16.032,16.032H504.5L472.435,304.097z"/>
<g>
	<circle style="fill:#4B3F4E;" cx="71.63" cy="336.16" r="40.08"/>
	<circle style="fill:#4B3F4E;" cx="167.82" cy="336.16" r="40.08"/>
</g>
<path style="fill:#6482BE;" d="M344.177,199.887v40.081c0,8.854,7.178,16.032,16.032,16.032h62.793l-9.352-56.113H344.177z"/>
<path style="fill:#C88C3C;" d="M15.516,135.758h288.581c4.427,0,8.016,3.589,8.016,8.016v40.081H7.5v-40.081
	C7.5,139.347,11.089,135.758,15.516,135.758z"/>
<rect x="7.5" y="159.81" style="fill:#B97B3C;" width="304.61" height="24.05"/>
<g>
	<path style="fill:#E1A546;" d="M15.516,296.081h296.597V183.855H7.5v104.21C7.5,292.492,11.089,296.081,15.516,296.081z"/>
	<path style="fill:#E1A546;" d="M415.769,344.177c0.329-2.632,0.554-5.295,0.554-8.016c0-35.417-28.712-64.129-64.129-64.129
		c-15.176,0-29.098,5.3-40.081,14.112v50.017c0,4.427,3.589,8.016,8.016,8.016h72.144H415.769z"/>
</g>
<circle style="fill:#4B3F4E;" cx="352.19" cy="336.16" r="40.08"/>
<path d="M167.823,320.645c-8.556,0-15.516,6.96-15.516,15.516s6.96,15.516,15.516,15.516s15.516-6.96,15.516-15.516
	S176.378,320.645,167.823,320.645z"/>
<path d="M352.193,320.645c-8.556,0-15.516,6.96-15.516,15.516s6.96,15.516,15.516,15.516s15.516-6.96,15.516-15.516
	S360.749,320.645,352.193,320.645z"/>
<path d="M71.629,320.645c-8.556,0-15.516,6.96-15.516,15.516s6.96,15.516,15.516,15.516s15.516-6.96,15.516-15.516
	S80.185,320.645,71.629,320.645z"/>
<path d="M511.354,373.196l-32.064-72.145c-1.204-2.708-3.89-4.454-6.854-4.454h-16.032c-4.142,0-7.5,3.358-7.5,7.5v16.548H431.84
	V274.63c0-7.454-0.622-14.962-1.847-22.319l-12.055-72.325c-1.898-11.394-11.661-19.664-23.212-19.664h-75.112v-16.548
	c0-8.556-6.96-15.516-15.516-15.516H15.516C6.96,128.258,0,135.219,0,143.774v144.29c0,8.556,6.96,15.516,15.516,15.516h21.485
	c-8.021,8.521-12.952,19.982-12.952,32.581s4.931,24.06,12.952,32.581h-5.452c-4.142,0-7.5,3.358-7.5,7.5s3.358,7.5,7.5,7.5h176.355
	c4.142,0,7.5-3.358,7.5-7.5s-3.358-7.5-7.5-7.5h-5.452c6.397-6.795,10.825-15.458,12.356-25.081h90.402
	c1.531,9.622,5.959,18.286,12.356,25.081h-5.452c-4.142,0-7.5,3.358-7.5,7.5s3.358,7.5,7.5,7.5h80.162c4.142,0,7.5-3.358,7.5-7.5
	s-3.358-7.5-7.5-7.5h-5.452c4.563-4.847,8.119-10.645,10.341-17.064h19.16c8.556,0,15.516-6.96,15.516-15.516v-0.516h17.064v24.564
	c0,12.976,10.557,23.532,23.532,23.532H504.5c2.539,0,4.905-1.284,6.289-3.413C512.172,378.2,512.385,375.516,511.354,373.196z
	 M304.613,143.774v32.581H263.5v-33.097h40.597C304.381,143.258,304.613,143.49,304.613,143.774z M215.403,176.355v-33.097H248.5
	v33.097H215.403z M167.307,176.355v-33.097h33.097v33.097H167.307z M119.209,176.355v-33.097h33.097v33.097H119.209z
	 M71.113,176.355v-33.097h33.097v33.097H71.113z M15.516,143.258h40.597v33.097H15v-32.581C15,143.49,15.231,143.258,15.516,143.258
	z M15,288.065v-96.709h289.613v96.709c0,0.285-0.231,0.516-0.516,0.516h-8.02c-4.142,0-7.5,3.358-7.5,7.5s3.358,7.5,7.5,7.5h8.02
	c0.174,0,0.343-0.02,0.516-0.026v25.107h-89.806c-1.531-9.622-5.959-18.286-12.356-25.081h61.562c4.142,0,7.5-3.358,7.5-7.5
	s-3.358-7.5-7.5-7.5H15.516C15.231,288.581,15,288.349,15,288.065z M133.194,303.581c-8.022,8.521-12.952,19.982-12.952,32.581
	s4.931,24.06,12.952,32.581h-26.937c8.021-8.521,12.952-19.982,12.952-32.581s-4.931-24.06-12.952-32.581H133.194z M39.048,336.161
	c0-17.965,14.616-32.581,32.581-32.581s32.581,14.616,32.581,32.581s-14.616,32.581-32.581,32.581S39.048,354.126,39.048,336.161z
	 M135.242,336.161c0-17.965,14.616-32.581,32.581-32.581s32.581,14.616,32.581,32.581s-14.616,32.581-32.581,32.581
	C149.857,368.742,135.242,354.126,135.242,336.161z M319.613,336.161c0-17.965,14.616-32.581,32.581-32.581
	s32.581,14.616,32.581,32.581s-14.616,32.581-32.581,32.581S319.613,354.126,319.613,336.161z M416.839,336.161
	c0,0.285-0.231,0.516-0.516,0.516h-16.561c0.002-0.173,0.013-0.343,0.013-0.516c0-26.236-21.345-47.581-47.581-47.581
	c-12.598,0-24.06,4.931-32.581,12.952v-126.21h75.112c4.188,0,7.728,2.998,8.416,7.129l1.656,9.935h-20.542
	c-4.142,0-7.5,3.358-7.5,7.5s3.358,7.5,7.5,7.5h23.042l6.853,41.113h-53.94c-4.705,0-8.532-3.828-8.532-8.532v-32.581h0.517
	c4.142,0,7.5-3.358,7.5-7.5s-3.358-7.5-7.5-7.5h-8.017c-4.142,0-7.5,3.358-7.5,7.5v40.081c0,12.976,10.557,23.532,23.532,23.532
	h56.096c0.343,3.705,0.534,7.424,0.534,11.13v5.935h-8.532c-4.142,0-7.5,3.358-7.5,7.5s3.358,7.5,7.5,7.5h8.532v40.597H416.839z
	 M472.436,368.742c-4.705,0-8.532-3.828-8.532-8.532v-48.613h3.658l25.398,57.145L472.436,368.742L472.436,368.742z"/>
<g>
</g>
<g>
</g>
<g>
</g>
<g>
</g>
<g>
</g>
<g>
</g>
<g>
</g>
<g>
</g>
<g>
</g>
<g>
</g>
<g>
</g>
<g>
</g>
<g>
</g>
<g>
</g>
<g>
</g>
</svg>
